#tb 0: 1/25
#media_type 0: video
#codec_id 0: rawvideo
#dimensions 0: 416x240
#sar 0: 0/1
0,          0,          0,        1,   299520, 0x6c5bc86e
0,          1,          1,        1,   299520, 0xb4183c01
0,          2,          2,        1,   299520, 0x35679dec
0,          3,          3,        1,   299520, 0x1fc6a107
0,          4,          4,        1,   299520, 0x161fb0ca
0,          5,          5,        1,   299520, 0x8a52b0ec
0,          6,          6,        1,   299520, 0x1f132c2a
0,          7,          7,        1,   299520, 0xf19c6b3d
0,          8,          8,        1,   299520, 0x09f04c5f
0,          9,          9,        1,   299520, 0x5fa4f23f
0,         10,         10,        1,   299520, 0xb04ddfb6
0,         11,         11,        1,   299520, 0xe1094a13
0,         12,         12,        1,   299520, 0xc06062a0
0,         13,         13,        1,   299520, 0x18321120
0,         14,         14,        1,   299520, 0x14f73009
0,         15,         15,        1,   299520, 0xe4d18d2a
0,         16,         16,        1,   299520, 0x7d831ba2
0,         17,         17,        1,   299520, 0x429792d0
0,         18,         18,        1,   299520, 0x4b3ff8bc
0,         19,         19,        1,   299520, 0x33550567
0,         20,         20,        1,   299520, 0xcfeeab74
0,         21,         21,        1,   299520, 0x94de7f9d
0,         22,         22,        1,   299520, 0xb5d50a92
0,         23,         23,        1,   299520, 0x3f376974
0,         24,         24,        1,   299520, 0x97d1c019
0,         25,         25,        1,   299520, 0x727ec570
0,         26,         26,        1,   299520, 0x89747701
0,         27,         27,        1,   299520, 0x7aa251b8
0,         28,         28,        1,   299520, 0xe2ce36be
0,         29,         29,        1,   299520, 0x3b7b54b2
0,         30,         30,        1,   299520, 0x8da6d418
0,         31,         31,        1,   299520, 0x52a1308c
0,         32,         32,        1,   299520, 0x5a4ed879
0,         33,         33,        1,   299520, 0xc54d4882
0,         34,         34,        1,   299520, 0xc8db89e7
0,         35,         35,        1,   299520, 0x4a303755
0,         36,         36,        1,   299520, 0x39347988
0,         37,         37,        1,   299520, 0xa93f7c42
0,         38,         38,        1,   299520, 0x0bb439ee
0,         39,         39,        1,   299520, 0xd2708ccf
0,         40,         40,        1,   299520, 0x5c6104fd
0,         41,         41,        1,   299520, 0xe1b4c038
0,         42,         42,        1,   299520, 0xe7c4c764
0,         43,         43,        1,   299520, 0x4c7b0370
0,         44,         44,        1,   299520, 0x477a5200
0,         45,         45,        1,   299520, 0x8c3fb9fc
0,         46,         46,        1,   299520, 0x328e289f
0,         47,         47,        1,   299520, 0x086977c9
0,         48,         48,        1,   299520, 0x5c841bc5
0,         49,         49,        1,   299520, 0x76289af0
0,         50,         50,        1,   299520, 0xfd3bba64
0,         51,         51,        1,   299520, 0x0c97d9ac
0,         52,         52,        1,   299520, 0xdf12bee1
0,         53,         53,        1,   299520, 0x4e8f470b
0,         54,         54,        1,   299520, 0xe02f6313
0,         55,         55,        1,   299520, 0x42d636f8
0,         56,         56,        1,   299520, 0x9108325a
0,         57,         57,        1,   299520, 0x8b175897
0,         58,         58,        1,   299520, 0xe40a2cec
0,         59,         59,        1,   299520, 0x72da2804
0,         60,         60,        1,   299520, 0xc071ab81
0,         61,         61,        1,   299520, 0xf9acf412
0,         62,         62,        1,   299520, 0x1021fa32
0,         63,         63,        1,   299520, 0x84042885
